<?xml version="1.0" encoding="UTF-8" standalone="no"?>
<!-- Created with Inkscape (http://www.inkscape.org/) -->

<svg
   xmlns:dc="http://purl.org/dc/elements/1.1/"
   xmlns:cc="http://creativecommons.org/ns#"
   xmlns:rdf="http://www.w3.org/1999/02/22-rdf-syntax-ns#"
   xmlns:svg="http://www.w3.org/2000/svg"
   xmlns="http://www.w3.org/2000/svg"
   xmlns:sodipodi="http://sodipodi.sourceforge.net/DTD/sodipodi-0.dtd"
   xmlns:inkscape="http://www.inkscape.org/namespaces/inkscape"
   width="210mm"
   height="297mm"
   viewBox="0 0 210 297"
   version="1.1"
   id="svg8"
   inkscape:version="0.92.5 (2060ec1f9f, 2020-04-08)"
   sodipodi:docname="symbol.svg">
  <defs
     id="defs2">
    <inkscape:perspective
       sodipodi:type="inkscape:persp3d"
       inkscape:vp_x="0 : 148.5 : 1"
       inkscape:vp_y="0 : 1000 : 0"
       inkscape:vp_z="210 : 148.5 : 1"
       inkscape:persp3d-origin="105 : 99 : 1"
       id="perspective3713" />
  </defs>
  <sodipodi:namedview
     id="base"
     pagecolor="#ffffff"
     bordercolor="#666666"
     borderopacity="1.0"
     inkscape:pageopacity="0.0"
     inkscape:pageshadow="2"
     inkscape:zoom="0.35"
     inkscape:cx="400"
     inkscape:cy="560"
     inkscape:document-units="mm"
     inkscape:current-layer="layer1"
     showgrid="false"
     inkscape:window-width="1366"
     inkscape:window-height="711"
     inkscape:window-x="0"
     inkscape:window-y="0"
     inkscape:window-maximized="1" />
  <metadata
     id="metadata5">
    <rdf:RDF>
      <cc:Work
         rdf:about="">
        <dc:format>image/svg+xml</dc:format>
        <dc:type
           rdf:resource="http://purl.org/dc/dcmitype/StillImage" />
        <dc:title></dc:title>
      </cc:Work>
    </rdf:RDF>
  </metadata>
  <g
     inkscape:label="Layer 1"
     inkscape:groupmode="layer"
     id="layer1">
    <rect
       id="rect3743"
       width="148.92262"
       height="206.375"
       x="25.702381"
       y="32.416664"
       style="fill:#2d5016;stroke-width:0.26458332" />
    <ellipse
       style="fill:#447821;stroke-width:0.26458332"
       id="path3753"
       cx="99.407745"
       cy="149.58928"
       rx="74.461304"
       ry="132.29167" />
    <path
       sodipodi:type="star"
       style="fill:#3e4837;stroke-width:0.26458332"
       id="path3771"
       sodipodi:sides="5"
       sodipodi:cx="65.767853"
       sodipodi:cy="80.797623"
       sodipodi:r1="16.784866"
       sodipodi:r2="8.3924332"
       sodipodi:arg1="0.94531129"
       sodipodi:arg2="1.5736298"
       inkscape:flatsided="false"
       inkscape:rounded="0"
       inkscape:randomized="0"
       d="m 75.595233,94.404765 -9.85116,-5.214743 -9.880554,5.158833 1.915339,-10.980454 -7.959601,-7.802798 11.034905,-1.571551 4.961251,-9.981228 4.904607,10.009182 11.025822,1.634061 -8.003691,7.757566 z"
       inkscape:transform-center-x="-0.014695926"
       inkscape:transform-center-y="-1.5888293" />
    <path
       sodipodi:type="star"
       style="fill:#3e4837;stroke-width:0.26458332"
       id="path3771-6"
       sodipodi:sides="5"
       sodipodi:cx="97.694438"
       sodipodi:cy="80.888087"
       sodipodi:r1="16.784866"
       sodipodi:r2="8.3924332"
       sodipodi:arg1="0.94531129"
       sodipodi:arg2="1.5736298"
       inkscape:flatsided="false"
       inkscape:rounded="0"
       inkscape:randomized="0"
       d="m 107.52182,94.495227 -9.851165,-5.214743 -9.880554,5.158833 1.91534,-10.980454 -7.959602,-7.802799 11.034906,-1.571551 4.96125,-9.981228 4.904605,10.009183 11.02582,1.63406 -8.00369,7.757566 z"
       inkscape:transform-center-x="-0.014695926"
       inkscape:transform-center-y="-1.5888293" />
    <path
       sodipodi:type="star"
       style="fill:#3e4837;stroke-width:0.26458332"
       id="path3771-7"
       sodipodi:sides="5"
       sodipodi:cx="129.62102"
       sodipodi:cy="80.978548"
       sodipodi:r1="16.784866"
       sodipodi:r2="8.3924332"
       sodipodi:arg1="0.94531129"
       sodipodi:arg2="1.5736298"
       inkscape:flatsided="false"
       inkscape:rounded="0"
       inkscape:randomized="0"
       d="m 139.4484,94.585689 -9.85116,-5.214743 -9.88056,5.158833 1.91534,-10.980455 -7.9596,-7.802798 11.03491,-1.571551 4.96125,-9.981228 4.9046,10.009183 11.02583,1.63406 -8.00369,7.757566 z"
       inkscape:transform-center-x="-0.014695926"
       inkscape:transform-center-y="-1.5888293" />
    <flowRoot
       xml:space="preserve"
       id="flowRoot3813"
       style="fill:black;fill-opacity:1;stroke:none;font-family:sans-serif;font-style:normal;font-weight:normal;font-size:40px;line-height:1.25;letter-spacing:0px;word-spacing:0px"><flowRegion
         id="flowRegion3815"><rect
           id="rect3817"
           width="425.71429"
           height="174.28572"
           x="182.85715"
           y="422.51968" /></flowRegion><flowPara
         id="flowPara3819"></flowPara></flowRoot>    <text
       xml:space="preserve"
       style="font-style:normal;font-weight:normal;font-size:20.86969185px;line-height:1.25;font-family:sans-serif;letter-spacing:0px;word-spacing:0px;fill:#000000;fill-opacity:1;stroke:none;stroke-width:0.52174228"
       x="74.358131"
       y="91.175659"
       id="text3823"
       transform="scale(0.78531375,1.2733764)"><tspan
         sodipodi:role="line"
         id="tspan3821"
         x="74.358131"
         y="91.175659"
         style="stroke-width:0.52174228">BREGEAL</tspan></text>
    <flowRoot
       xml:space="preserve"
       id="flowRoot3825"
       style="fill:black;fill-opacity:1;stroke:none;font-family:sans-serif;font-style:normal;font-weight:normal;font-size:40px;line-height:1.25;letter-spacing:0px;word-spacing:0px"><flowRegion
         id="flowRegion3827"><rect
           id="rect3829"
           width="20"
           height="65.714287"
           x="445.71429"
           y="499.66254" /></flowRegion><flowPara
         id="flowPara3831"></flowPara></flowRoot>    <flowRoot
       xml:space="preserve"
       id="flowRoot3835"
       style="font-style:normal;font-weight:normal;font-size:40px;line-height:1.25;font-family:sans-serif;letter-spacing:0px;word-spacing:0px;fill:#000000;fill-opacity:1;stroke:none"
       transform="matrix(0.39902873,0,0,0.3858063,309.47931,-18.057357)"><flowRegion
         id="flowRegion3837"><rect
           id="rect3839"
           width="297.14285"
           height="179.99997"
           x="-682.85712"
           y="468.23398" /></flowRegion><flowPara
         id="flowPara3841">Dr. Rıdvan Ege</flowPara><flowPara
         id="flowPara3843">Dr. Binnaz Ege Anadolu Lisesi</flowPara></flowRoot>    <g
       sodipodi:type="inkscape:box3d"
       id="g3873"
       style="fill:#3e4837"
       inkscape:perspectiveID="#perspective3713"
       inkscape:corner0="2.5614779 : 0.061774394 : 0 : 1"
       inkscape:corner7="-0.33541799 : 0.056311969 : 0.25 : 1">
      <path
         sodipodi:type="inkscape:box3dside"
         id="path3875"
         style="fill:#353564;fill-rule:evenodd;stroke:none;stroke-linejoin:round"
         inkscape:box3dsidetype="6"
         d="m 29.482143,145.05357 v 1.53375 l 11.840412,0.12546 v -1.43315 z"
         points="29.482143,146.58732 41.322555,146.71278 41.322555,145.27963 29.482143,145.05357 " />
      <path
         sodipodi:type="inkscape:box3dside"
         id="path3885"
         style="fill:#e9e9ff;fill-rule:evenodd;stroke:none;stroke-linejoin:round"
         inkscape:box3dsidetype="11"
         d="M 41.322555,145.27963 172.20982,135.07924 v 5.97259 l -130.887265,5.66095 z"
         points="172.20982,135.07924 172.20982,141.05183 41.322555,146.71278 41.322555,145.27963 " />
      <path
         sodipodi:type="inkscape:box3dside"
         id="path3877"
         style="fill:#4d4d9f;fill-rule:evenodd;stroke:none;stroke-linejoin:round"
         inkscape:box3dsidetype="5"
         d="m 29.482143,145.05357 128.511907,-15.02291 14.21577,5.04858 -130.887265,10.20039 z"
         points="157.99405,130.03066 172.20982,135.07924 41.322555,145.27963 29.482143,145.05357 " />
      <path
         sodipodi:type="inkscape:box3dside"
         id="path3883"
         style="fill:#afafde;fill-rule:evenodd;stroke:none;stroke-linejoin:round"
         inkscape:box3dsidetype="13"
         d="M 29.482143,146.58732 157.99405,138.25 l 14.21577,2.80183 -130.887265,5.66095 z"
         points="157.99405,138.25 172.20982,141.05183 41.322555,146.71278 29.482143,146.58732 " />
      <path
         sodipodi:type="inkscape:box3dside"
         id="path3881"
         style="fill:#d7d7ff;fill-rule:evenodd;stroke:none;stroke-linejoin:round"
         inkscape:box3dsidetype="14"
         d="M 157.99405,130.03066 V 138.25 l 14.21577,2.80183 v -5.97259 z"
         points="157.99405,138.25 172.20982,141.05183 172.20982,135.07924 157.99405,130.03066 " />
      <path
         sodipodi:type="inkscape:box3dside"
         id="path3879"
         style="fill:#8686bf;fill-rule:evenodd;stroke:none;stroke-linejoin:round"
         inkscape:box3dsidetype="3"
         d="M 29.482143,145.05357 157.99405,130.03066 V 138.25 l -128.511907,8.33732 z"
         points="157.99405,130.03066 157.99405,138.25 29.482143,146.58732 29.482143,145.05357 " />
    </g>
    <path
       style="fill:#3e4837;stroke-width:0.99999994"
       d="M 537.72461 490.0625 C 534.55581 490.05537 531.38734 490.05986 528.21875 490.10352 C 520.79032 490.16153 513.34979 490.25727 505.96289 491.14062 C 498.4092 492.33424 491.09824 494.36732 483.70117 496.18164 C 476.82629 496.64078 469.99032 497.61559 463.19727 498.75391 C 456.15026 498.89862 449.09187 499.06023 442.0957 500.00391 C 435.79213 500.83094 429.63383 502.08482 423.22266 501.55859 C 415.98267 501.6445 408.73125 501.71847 401.52539 502.51172 C 394.30139 503.32409 387.23437 505.09934 379.94922 505.34766 C 372.0983 506.28343 364.38099 508.10709 356.42969 507.99219 C 347.37076 508.61846 338.36646 510.08331 329.29102 510.17969 C 321.7095 510.18347 314.12824 510.15706 306.54688 510.12305 C 299.796 510.15865 293.04024 510.09274 286.29688 509.74805 C 278.26765 509.25214 270.28358 508.37403 262.3125 507.29297 C 254.55561 507.30431 246.79788 507.23652 239.04102 507.27734 C 231.04806 507.29851 223.05468 507.25431 215.0625 507.37109 C 208.24844 507.83858 201.51212 509.02075 194.8457 510.49023 C 186.07424 512.33801 177.10653 513.2186 168.31641 515.0293 C 160.53902 516.77593 152.65001 517.26071 144.72266 517.99609 L 144.72266 517.99414 L 110.80664 543.50195 C 118.71072 542.00602 126.76384 541.74962 134.69531 540.45312 C 143.53909 538.61087 152.46507 537.24502 161.37305 535.76953 C 167.88558 534.44069 174.42361 533.26816 181.0332 532.55273 C 189.01556 531.87971 197.04064 531.96144 205.04492 531.97656 C 212.78775 532.0359 220.53051 531.9949 228.27344 532.01758 C 236.22355 532.4396 244.11453 533.58464 252.04883 534.25195 C 258.80133 534.81363 265.57972 534.82374 272.34961 534.9375 C 280.00111 534.93599 287.65323 534.88256 295.30469 534.875 C 304.47318 535.0074 313.57132 533.67808 322.68945 532.9043 C 330.59898 532.8066 338.37382 531.6204 346.18555 530.54297 C 353.43773 529.98575 360.59623 528.78461 367.78125 527.70703 C 374.87013 526.75024 382.02267 526.50552 389.16602 526.37891 C 395.60909 526.59177 401.96441 526.23 408.33008 525.26758 C 415.22885 524.2092 422.19601 523.81996 429.16406 523.61133 C 436.05225 523.08231 442.88225 521.98205 449.75781 521.28125 C 457.41676 520.38361 464.75636 517.9197 472.32422 516.47656 C 479.53843 515.23461 486.87324 515.03085 494.17578 514.90234 C 500.47331 514.88643 506.7708 514.88345 513.06836 514.90234 C 521.39836 514.83809 529.72664 514.8265 538.05664 514.88281 C 545.25078 514.90965 552.44663 514.87728 559.64062 514.92188 L 593.77734 490.11914 C 586.55024 490.16072 579.32299 490.12967 572.0957 490.15234 C 563.80693 490.20261 555.51897 490.1912 547.23047 490.0918 C 544.06169 490.08802 540.89341 490.06963 537.72461 490.0625 z "
       transform="scale(0.26458333)"
       id="path3925" />
  </g>
</svg>
